<?xml version="1.0" encoding="UTF-8" standalone="no"?>
<!-- Created with Inkscape (http://www.inkscape.org/) -->

<svg
   width="273.8623"
   height="124.01007"
   viewBox="0 0 273.8623 124.01007"
   version="1.1"
   id="svg1"
   xml:space="preserve"
   xmlns="http://www.w3.org/2000/svg"
   xmlns:svg="http://www.w3.org/2000/svg"><defs
     id="defs1" /><g
     id="layer1"
     transform="translate(-478.11011,-6.896986)"><g
       id="g1"
       transform="matrix(1.3415782,0,0,1.3415782,-163.29973,-2.6604765)"><g
         id="text1"
         style="font-size:23.7258px;font-family:Michroma;-inkscape-font-specification:Michroma;fill:#ffffff;stroke-width:1.09493"
         aria-label="APPS4WEB"><path
           d="m 479.58552,67.165779 10.38003,-17.79435 h 2.96573 l 10.38004,17.79435 h -2.59501 l -2.2243,-4.077872 h -14.08719 l -2.22429,4.077872 z m 5.93145,-5.93145 h 11.8629 l -5.93145,-10.380037 z m 20.80641,5.93145 v -17.79435 h 11.90924 q 2.60659,0 4.19372,0.254867 1.59871,0.254867 2.42124,0.85728 0.82252,0.590828 1.11214,1.610296 0.28963,1.007883 0.28963,2.513916 v 0.463394 q 0,1.436523 -0.30121,2.444406 -0.28962,0.996298 -1.13532,1.610296 -0.84569,0.613998 -2.4444,0.903619 -1.59871,0.278037 -4.20531,0.278037 h -9.61544 v 6.858239 z m 17.70167,-12.557991 q 0,-1.100562 -0.20853,-1.7609 -0.20852,-0.660337 -0.83411,-0.996298 -0.62558,-0.335961 -1.86516,-0.440225 -1.23958,-0.115848 -3.31327,-0.115848 h -9.25631 v 7.089936 h 9.25631 q 2.07369,0 3.31327,-0.127434 1.23958,-0.139018 1.86516,-0.486564 0.62559,-0.359131 0.83411,-1.007883 0.20853,-0.660337 0.20853,-1.69139 z m 5.36379,12.557991 v -17.79435 h 11.90924 q 2.6066,0 4.19372,0.254867 1.59871,0.254867 2.42124,0.85728 0.82252,0.590828 1.11215,1.610296 0.28962,1.007883 0.28962,2.513916 v 0.463394 q 0,1.436523 -0.30121,2.444406 -0.28962,0.996298 -1.13532,1.610296 -0.84569,0.613998 -2.4444,0.903619 -1.59871,0.278037 -4.20531,0.278037 h -9.61543 v 6.858239 z m 17.70167,-12.557991 q 0,-1.100562 -0.20852,-1.7609 -0.20853,-0.660337 -0.83411,-0.996298 -0.62559,-0.335961 -1.86517,-0.440225 -1.23958,-0.115848 -3.31327,-0.115848 h -9.2563 v 7.089936 h 9.2563 q 2.07369,0 3.31327,-0.127434 1.23958,-0.139018 1.86517,-0.486564 0.62558,-0.359131 0.83411,-1.007883 0.20852,-0.660337 0.20852,-1.69139 z m 24.2587,7.414312 q 0,-1.031053 -0.16218,-1.621881 -0.16219,-0.590828 -0.72985,-0.868865 -0.56766,-0.289621 -1.7609,-0.370715 -1.19324,-0.09268 -3.26693,-0.127434 l -6.44118,-0.09268 q -2.38649,-0.03475 -3.83459,-0.289621 -1.44811,-0.254867 -2.18954,-0.799356 -0.74143,-0.556073 -0.9963,-1.482862 -0.24328,-0.926789 -0.24328,-2.316973 0,-1.517617 0.33596,-2.50233 0.34754,-0.984714 1.23958,-1.540787 0.90362,-0.556074 2.54867,-0.776186 1.64505,-0.231697 4.25164,-0.231697 h 4.95832 q 2.36332,0 3.93886,0.150603 1.57554,0.150603 2.50233,0.695092 0.92679,0.544488 1.32067,1.69139 0.40547,1.146901 0.40547,3.151083 h -2.22429 q 0,-1.552372 -0.30121,-2.340143 -0.28962,-0.799355 -0.97313,-1.088977 -0.67192,-0.289621 -1.81882,-0.312791 -1.1469,-0.02317 -2.84988,-0.02317 h -4.84247 q -2.07369,0 -3.32485,0.08109 -1.23958,0.08109 -1.87675,0.370716 -0.63717,0.289621 -0.85728,0.926789 -0.20853,0.637167 -0.20853,1.749314 0,0.938374 0.1506,1.506032 0.15061,0.567659 0.67193,0.868865 0.5329,0.289622 1.63346,0.40547 1.10056,0.104264 3.00048,0.127434 l 6.90458,0.09268 q 2.43282,0.03475 3.88093,0.289621 1.45969,0.243282 2.17795,0.799356 0.72985,0.556073 0.96155,1.506032 0.24328,0.938374 0.24328,2.374897 0,1.563956 -0.30121,2.629764 -0.28962,1.054222 -1.13531,1.69139 -0.8457,0.637167 -2.44441,0.915204 -1.59871,0.278037 -4.20531,0.278037 h -5.42171 q -2.3749,0 -3.98519,-0.208528 -1.6103,-0.208527 -2.57184,-0.83411 -0.94996,-0.637167 -1.36702,-1.888333 -0.41705,-1.251165 -0.41705,-3.33644 h 2.22429 q 0,1.633466 0.26645,2.5255 0.26645,0.892034 0.92679,1.28592 0.67192,0.3823 1.86516,0.463394 1.20483,0.06951 3.05841,0.06951 h 5.30587 q 2.07369,0 3.27851,-0.127433 1.20483,-0.139018 1.78407,-0.509734 0.57924,-0.3823 0.74143,-1.088977 0.17377,-0.706677 0.17377,-1.865163 z"
           id="path1" /><path
           style="fill:#ff0000"
           d="m 592.05137,67.165779 v -3.707156 h -15.57006 v -2.224294 l 14.82863,-11.8629 h 2.96572 v 12.233616 h 2.96573 v 1.853578 h -2.96573 v 3.707156 z m -13.34576,-5.560734 h 13.34576 V 50.854292 Z"
           id="path2" /><path
           d="m 608.36286,67.165779 -8.74657,-17.79435 h 2.56025 l 7.66918,15.906017 7.22895,-15.906017 h 2.59501 l 7.22896,15.906017 6.92775,-15.906017 h 2.56025 l -8.00514,17.79435 h -2.96572 l -7.0436,-15.558471 -7.0436,15.558471 z m 31.1401,0 v -17.79435 h 17.46998 v 1.853579 h -15.24568 v 5.931449 h 14.60851 v 1.853579 h -14.60851 v 6.302165 h 15.57005 v 1.853578 z m 20.76008,0 v -17.79435 h 14.17987 q 2.01576,0 3.30168,0.382301 1.29751,0.370716 1.91151,1.332259 0.62558,0.949959 0.62558,2.699273 0,1.575542 -0.72985,2.606594 -0.72984,1.031053 -2.23588,1.135317 1.96943,0.196943 2.8383,1.413353 0.86886,1.204826 0.86886,3.035234 0,1.587127 -0.37072,2.606595 -0.35913,1.019468 -1.21641,1.587126 -0.85728,0.556073 -2.32855,0.776186 -1.4597,0.220112 -3.64924,0.220112 z m 2.22429,-10.380037 h 10.36845 q 1.79566,0 2.94256,-0.127434 1.1469,-0.127433 1.70297,-0.753016 0.55608,-0.625582 0.55608,-2.12003 0,-1.170071 -0.33597,-1.714559 -0.32437,-0.544489 -1.11214,-0.695092 -0.78777,-0.150603 -2.16637,-0.150603 h -11.95558 z m 0,8.526459 h 10.97086 q 1.58713,0 2.61818,-0.08109 1.04264,-0.08109 1.63347,-0.393885 0.60241,-0.312792 0.84569,-0.984714 0.24329,-0.683507 0.24329,-1.876748 0,-1.227995 -0.4634,-1.911502 -0.45181,-0.683507 -1.27433,-0.984713 -0.81094,-0.301207 -1.88834,-0.370716 -1.07739,-0.06951 -2.31697,-0.06951 h -10.36845 z"
           id="path3" /></g><path
         d="m 492.63116,75.383882 -3.10857,11.623328 h -1.3595 l -2.30558,-7.823088 q -0.10336,-0.333913 -0.19876,-0.667825 -0.0874,-0.341863 -0.16696,-0.643974 -0.0795,-0.310061 -0.13515,-0.54062 -0.0477,-0.238508 -0.0716,-0.357763 -0.0159,0.119255 -0.0636,0.349813 -0.0397,0.230559 -0.1113,0.53267 -0.0636,0.302111 -0.15901,0.643973 -0.0874,0.341863 -0.1908,0.691676 l -2.24198,7.815138 h -1.3595 l -3.08472,-11.623328 h 1.4072 l 1.86832,7.290418 q 0.0954,0.365714 0.17491,0.723477 0.0874,0.349813 0.15105,0.683725 0.0716,0.333912 0.12721,0.651924 0.0557,0.318012 0.10335,0.620123 0.0398,-0.310062 0.10336,-0.643974 0.0636,-0.341862 0.13515,-0.691675 0.0795,-0.349813 0.16696,-0.707576 0.0954,-0.357764 0.19876,-0.715527 l 2.09092,-7.210915 h 1.3913 l 2.17838,7.266567 q 0.11131,0.373664 0.20671,0.739378 0.0954,0.365713 0.16696,0.715526 0.0795,0.341862 0.13515,0.659874 0.0636,0.310062 0.11131,0.588322 0.0556,-0.389564 0.13515,-0.81888 0.0795,-0.429316 0.18286,-0.898383 0.1113,-0.469068 0.23851,-0.969936 l 1.86832,-7.282468 z m 4.98483,2.750801 q 1.11304,0 1.90807,0.492918 0.79503,0.492918 1.2164,1.383351 0.42136,0.882483 0.42136,2.067076 v 0.81888 h -6.01837 q 0.0239,1.534407 0.76323,2.337386 0.73938,0.80298 2.08298,0.80298 0.82683,0 1.46285,-0.151056 0.63602,-0.151055 1.31975,-0.445216 v 1.160743 q -0.65988,0.294161 -1.3118,0.429316 -0.64397,0.135155 -1.52646,0.135155 -1.25614,0 -2.19428,-0.508819 -0.93018,-0.516769 -1.44695,-1.510556 -0.51677,-0.993786 -0.51677,-2.432789 0,-1.407202 0.46907,-2.43279 0.47702,-1.033538 1.33565,-1.590059 0.86658,-0.55652 2.03527,-0.55652 z m -0.0159,1.08124 q -1.05739,0 -1.68546,0.691675 -0.62807,0.691676 -0.74733,1.931921 h 4.61117 q -0.008,-0.779128 -0.24646,-1.36745 -0.23056,-0.596272 -0.70757,-0.922234 -0.47702,-0.333912 -1.22435,-0.333912 z m 7.12346,-4.579369 v 3.092664 q 0,0.53267 -0.0318,1.033538 -0.0239,0.500868 -0.0398,0.779129 h 0.0716 q 0.35777,-0.588322 1.03354,-0.993787 0.67578,-0.405465 1.72522,-0.405465 1.63776,0 2.60769,1.136892 0.97789,1.128942 0.97789,3.362974 0,1.470804 -0.44522,2.480491 -0.44521,1.009688 -1.25614,1.526457 -0.81093,0.516769 -1.91603,0.516769 -1.03353,0 -1.70136,-0.381614 -0.65987,-0.389565 -1.01764,-0.946085 h -0.10335 l -0.27031,1.168693 h -0.95403 V 74.636554 Z m 2.5441,4.61117 q -0.94609,0 -1.50261,0.373664 -0.55652,0.365713 -0.80298,1.113041 -0.23851,0.739377 -0.23851,1.876269 v 0.07155 q 0,1.645711 0.54857,2.520243 0.54857,0.866582 1.99553,0.866582 1.21639,0 1.82062,-0.890433 0.61217,-0.890432 0.61217,-2.544093 0,-1.685462 -0.60422,-2.536144 -0.59628,-0.850681 -1.82857,-0.850681 z m 5.35849,3.975146 v -1.176643 h 3.94335 v 1.176643 z m 13.4678,3.78434 -1.43105,-3.688936 h -4.65887 l -1.42311,3.688936 h -1.36745 l 4.54757,-11.67103 h 1.2164 l 4.51576,11.67103 z m -1.83652,-4.88943 -1.3595,-3.665085 q -0.0477,-0.143106 -0.159,-0.469068 -0.10336,-0.325962 -0.21466,-0.675775 -0.11131,-0.349812 -0.18286,-0.56447 -0.0795,0.325962 -0.1749,0.651924 -0.0875,0.318011 -0.17491,0.596272 -0.0874,0.27031 -0.15106,0.461117 l -1.38335,3.665085 z m 8.73738,-3.983097 q 1.62981,0 2.59974,1.120991 0.96994,1.120991 0.96994,3.370924 0,1.486705 -0.44522,2.496392 -0.44521,1.009688 -1.25614,1.526457 -0.80298,0.516769 -1.90012,0.516769 -0.69168,0 -1.2164,-0.182857 -0.52472,-0.182857 -0.89838,-0.492918 -0.37367,-0.310062 -0.62013,-0.675775 h -0.0954 q 0.0238,0.310061 0.0557,0.747327 0.0397,0.437266 0.0397,0.763228 v 3.577632 H 528.9004 V 78.293689 h 1.08919 l 0.1749,1.287947 h 0.0636 q 0.25441,-0.397514 0.62013,-0.723476 0.36571,-0.333913 0.89043,-0.52472 0.53267,-0.198757 1.25615,-0.198757 z m -0.23056,1.113041 q -0.90634,0 -1.46286,0.349813 -0.54857,0.349813 -0.80298,1.049438 -0.25441,0.691676 -0.27031,1.741115 v 0.254409 q 0,1.105091 0.23851,1.868319 0.24646,0.763228 0.80298,1.160743 0.56447,0.397514 1.51056,0.397514 0.81093,0 1.35155,-0.437266 0.54062,-0.437266 0.80298,-1.216395 0.27031,-0.787079 0.27031,-1.804716 0,-1.542357 -0.60422,-2.44869 -0.59628,-0.914284 -1.83652,-0.914284 z m 10.19227,-1.113041 q 1.62981,0 2.59975,1.120991 0.96993,1.120991 0.96993,3.370924 0,1.486705 -0.44521,2.496392 -0.44522,1.009688 -1.25615,1.526457 -0.80298,0.516769 -1.90012,0.516769 -0.69167,0 -1.21639,-0.182857 -0.52472,-0.182857 -0.89839,-0.492918 -0.37366,-0.310062 -0.62012,-0.675775 h -0.0954 q 0.0238,0.310061 0.0557,0.747327 0.0397,0.437266 0.0397,0.763228 v 3.577632 h -1.3277 V 78.293689 h 1.08919 l 0.17491,1.287947 h 0.0636 q 0.25441,-0.397514 0.62012,-0.723476 0.36572,-0.333913 0.89044,-0.52472 0.53267,-0.198757 1.25614,-0.198757 z m -0.23056,1.113041 q -0.90633,0 -1.46285,0.349813 -0.54857,0.349813 -0.80298,1.049438 -0.25441,0.691676 -0.27031,1.741115 v 0.254409 q 0,1.105091 0.23851,1.868319 0.24646,0.763228 0.80298,1.160743 0.56447,0.397514 1.51055,0.397514 0.81093,0 1.35155,-0.437266 0.54062,-0.437266 0.80298,-1.216395 0.27031,-0.787079 0.27031,-1.804716 0,-1.542357 -0.60422,-2.44869 -0.59627,-0.914284 -1.83652,-0.914284 z m 7.42558,7.759486 h -1.3277 V 74.636554 h 1.3277 z m 4.10235,-8.713521 v 8.713521 h -1.31975 v -8.713521 z m -0.64397,-3.25962 q 0.32596,0 0.55652,0.214658 0.23851,0.206707 0.23851,0.651924 0,0.437266 -0.23851,0.651924 -0.23056,0.214658 -0.55652,0.214658 -0.34187,0 -0.57242,-0.214658 -0.22261,-0.214658 -0.22261,-0.651924 0,-0.445217 0.22261,-0.651924 0.23055,-0.214658 0.57242,-0.214658 z m 6.9247,12.132147 q -1.17664,0 -2.07503,-0.484968 -0.89838,-0.484968 -1.39925,-1.478755 -0.50087,-0.993786 -0.50087,-2.504342 0,-1.582108 0.52472,-2.583845 0.53267,-1.009687 1.46286,-1.494655 0.93018,-0.484968 2.11477,-0.484968 0.65193,0 1.25615,0.135155 0.61217,0.127205 1.00174,0.325962 l -0.39752,1.105091 q -0.39751,-0.159006 -0.92223,-0.286211 -0.51677,-0.127205 -0.96994,-0.127205 -0.90633,0 -1.51055,0.389565 -0.59627,0.389564 -0.89839,1.144842 -0.29416,0.755278 -0.29416,1.860368 0,1.057389 0.28621,1.804717 0.29416,0.747327 0.86659,1.144842 0.58037,0.389564 1.44695,0.389564 0.69167,0 1.2482,-0.143105 0.55652,-0.151055 1.00968,-0.349813 v 1.176644 q -0.43726,0.222608 -0.97788,0.341862 -0.53267,0.119255 -1.27205,0.119255 z m 7.56868,-9.015633 q 1.55826,0 2.31354,0.699626 0.75527,0.699626 0.75527,2.234033 v 5.922968 h -0.96198 l -0.25441,-1.287948 h -0.0636 q -0.36572,0.477018 -0.76323,0.80298 -0.39752,0.318012 -0.92224,0.484968 -0.51676,0.159006 -1.27204,0.159006 -0.79503,0 -1.41515,-0.278261 -0.61218,-0.27826 -0.96994,-0.842731 -0.34981,-0.56447 -0.34981,-1.431052 0,-1.303848 1.03354,-2.003474 1.03353,-0.699626 3.14831,-0.763228 l 1.50261,-0.0636 v -0.532669 q 0,-1.128942 -0.48497,-1.582109 -0.48497,-0.453166 -1.36745,-0.453166 -0.68373,0 -1.30385,0.198757 -0.62012,0.198757 -1.17664,0.469067 l -0.40547,-1.001737 q 0.58832,-0.302111 1.35155,-0.516769 0.76323,-0.214658 1.60596,-0.214658 z m 1.76497,4.563469 -1.3277,0.05565 q -1.62981,0.0636 -2.29764,0.532669 -0.66782,0.469068 -0.66782,1.327699 0,0.747328 0.45316,1.105091 0.45317,0.357763 1.2005,0.357763 1.16074,0 1.90012,-0.643974 0.73938,-0.643973 0.73938,-1.931921 z m 6.83725,3.370924 q 0.32596,0 0.66782,-0.05565 0.34186,-0.05565 0.55652,-0.135155 v 1.025588 q -0.23056,0.103353 -0.64397,0.174906 -0.40547,0.07155 -0.79503,0.07155 -0.69168,0 -1.25615,-0.238509 -0.56447,-0.246459 -0.90633,-0.826831 -0.33391,-0.580371 -0.33391,-1.605959 v -5.16769 h -1.24025 v -0.643974 l 1.2482,-0.516769 0.52472,-1.89217 h 0.79503 v 2.019375 h 2.55204 v 1.033538 h -2.55204 v 5.127939 q 0,0.81888 0.37366,1.224345 0.38161,0.405465 1.00969,0.405466 z m 4.30905,-7.791287 v 8.713521 h -1.31975 v -8.713521 z m -0.64397,-3.25962 q 0.32596,0 0.55652,0.214658 0.23851,0.206707 0.23851,0.651924 0,0.437266 -0.23851,0.651924 -0.23056,0.214658 -0.55652,0.214658 -0.34186,0 -0.57242,-0.214658 -0.22261,-0.214658 -0.22261,-0.651924 0,-0.445217 0.22261,-0.651924 0.23056,-0.214658 0.57242,-0.214658 z m 10.94756,7.60048 q 0,1.073289 -0.27826,1.91602 -0.27826,0.842731 -0.80298,1.423103 -0.52472,0.580371 -1.27205,0.890433 -0.73938,0.302111 -1.67751,0.302111 -0.87453,0 -1.60596,-0.302111 -0.72348,-0.310062 -1.25615,-0.890433 -0.52472,-0.580372 -0.81888,-1.423103 -0.28621,-0.842731 -0.28621,-1.91602 0,-1.431053 0.48497,-2.43279 0.48497,-1.009687 1.38335,-1.534406 0.90633,-0.53267 2.15453,-0.53267 1.19254,0 2.08298,0.53267 0.89838,0.532669 1.3913,1.542356 0.50087,1.001737 0.50087,2.42484 z m -6.63055,0 q 0,1.049438 0.27826,1.820617 0.27826,0.771178 0.85863,1.192544 0.58038,0.421365 1.49466,0.421365 0.90633,0 1.4867,-0.421365 0.58833,-0.421366 0.86659,-1.192544 0.27826,-0.771179 0.27826,-1.820617 0,-1.041489 -0.27826,-1.796767 -0.27826,-0.763228 -0.85864,-1.176643 -0.58037,-0.413415 -1.5026,-0.413415 -1.3595,0 -1.99552,0.898383 -0.62808,0.898383 -0.62808,2.488442 z m 13.03848,-4.499866 q 1.5503,0 2.34533,0.763228 0.79503,0.755278 0.79503,2.43279 v 5.676509 h -1.30385 v -5.589056 q 0,-1.08919 -0.50087,-1.62981 -0.49291,-0.54062 -1.5185,-0.54062 -1.44695,0 -2.03528,0.81888 -0.58832,0.81888 -0.58832,2.377138 v 4.563468 h -1.31975 v -8.713521 h 1.06534 l 0.19876,1.256146 h 0.0716 q 0.27826,-0.461117 0.70758,-0.771178 0.42931,-0.318012 0.96198,-0.477018 0.53267,-0.166956 1.121,-0.166956 z m 11.49612,6.487439 q 0,0.834781 -0.42136,1.407202 -0.41342,0.564471 -1.19255,0.850681 -0.77117,0.286211 -1.84446,0.286211 -0.91429,0 -1.58211,-0.143106 -0.66783,-0.143105 -1.16869,-0.405465 v -1.216394 q 0.53266,0.262359 1.27204,0.477017 0.73938,0.214658 1.51056,0.214658 1.12894,0 1.63776,-0.365713 0.50882,-0.365714 0.50882,-0.993787 0,-0.357763 -0.20671,-0.628073 -0.19876,-0.27826 -0.67578,-0.53267 -0.47701,-0.262359 -1.31974,-0.572421 -0.83478,-0.318012 -1.44696,-0.628073 -0.60422,-0.318012 -0.93813,-0.771178 -0.32596,-0.453167 -0.32596,-1.176644 0,-1.10509 0.89043,-1.693412 0.89838,-0.596272 2.35329,-0.596272 0.78707,0 1.4708,0.159006 0.69168,0.151055 1.28795,0.413415 l -0.44522,1.057389 q -0.54062,-0.230559 -1.15279,-0.389564 -0.61217,-0.159006 -1.2482,-0.159006 -0.91428,0 -1.4072,0.302111 -0.48497,0.302111 -0.48497,0.82683 0,0.405465 0.22261,0.667825 0.23056,0.26236 0.73143,0.492918 0.50087,0.230559 1.31975,0.54062 0.81888,0.302111 1.41515,0.628073 0.59627,0.318012 0.91428,0.779129 0.32596,0.453167 0.32596,1.168693 z m 9.91401,-9.421097 q 0.85864,0 1.47876,0.302111 0.62807,0.294161 0.96198,0.850681 0.34187,0.556521 0.34187,1.3436 0,1.033538 -0.67578,1.749064 -0.66782,0.715527 -1.70136,1.303848 l 3.22782,3.132416 q 0.43726,-0.508819 0.71552,-1.176644 0.27826,-0.675775 0.46907,-1.462854 h 1.33565 q -0.25441,1.049439 -0.65987,1.931922 -0.39752,0.882482 -1.00174,1.550307 l 2.32944,2.281734 h -1.78882 l -1.439,-1.407202 q -0.50882,0.469067 -1.09714,0.82683 -0.58038,0.349813 -1.2959,0.548571 -0.70758,0.190807 -1.62186,0.190807 -1.11304,0 -1.93192,-0.365714 -0.81888,-0.365713 -1.27205,-1.073289 -0.44522,-0.707576 -0.44522,-1.733164 0,-0.842731 0.31007,-1.446954 0.31006,-0.604222 0.88248,-1.073289 0.57242,-0.469067 1.36745,-0.914284 -0.37367,-0.413415 -0.70758,-0.834781 -0.33391,-0.429315 -0.54062,-0.914283 -0.20671,-0.492918 -0.20671,-1.08124 0,-0.795029 0.35777,-1.3595 0.36571,-0.564471 1.02559,-0.866582 0.66782,-0.302111 1.5821,-0.302111 z m -0.71552,6.193278 q -0.62012,0.357763 -1.06534,0.707576 -0.43727,0.349813 -0.67578,0.787079 -0.23055,0.437266 -0.23055,1.057389 0,0.930184 0.62807,1.494655 0.62807,0.556521 1.67751,0.556521 1.08124,0 1.83652,-0.357764 0.76323,-0.357763 1.2959,-0.866582 z m 0.66782,-5.104088 q -0.72347,0 -1.17664,0.381614 -0.44522,0.373664 -0.44522,1.049439 0,0.604222 0.32596,1.113041 0.32597,0.508818 0.93019,1.128941 0.99379,-0.54857 1.439,-1.057389 0.45317,-0.516769 0.45317,-1.208444 0,-0.628073 -0.42137,-1.017638 -0.41341,-0.389564 -1.10509,-0.389564 z m 22.00642,4.794027 q 0,1.963722 -0.71553,3.283471 -0.71552,1.311798 -2.07502,1.979622 -1.35155,0.659875 -3.28347,0.659875 h -3.15627 V 75.383882 h 3.50608 q 1.77291,0 3.05291,0.651924 1.28,0.643973 1.97167,1.91602 0.69963,1.264097 0.69963,3.132416 z m -1.4231,0.0477 q 0,-1.566207 -0.52472,-2.583845 -0.51677,-1.017637 -1.52646,-1.510556 -1.00173,-0.500868 -2.45664,-0.500868 h -1.94782 v 9.309793 h 1.64571 q 2.40099,0 3.60148,-1.184594 1.20845,-1.184593 1.20845,-3.52993 z m 7.16321,-2.99726 q 1.11304,0 1.90807,0.492918 0.79503,0.492918 1.21639,1.383351 0.42137,0.882483 0.42137,2.067076 v 0.81888 h -6.01837 q 0.0239,1.534407 0.76323,2.337386 0.73937,0.80298 2.08297,0.80298 0.82683,0 1.46286,-0.151056 0.63602,-0.151055 1.31975,-0.445216 v 1.160743 q -0.65988,0.294161 -1.3118,0.429316 -0.64398,0.135155 -1.52646,0.135155 -1.25615,0 -2.19428,-0.508819 -0.93018,-0.516769 -1.44695,-1.510556 -0.51677,-0.993786 -0.51677,-2.432789 0,-1.407202 0.46907,-2.43279 0.47701,-1.033538 1.33564,-1.590059 0.86659,-0.55652 2.03528,-0.55652 z m -0.0159,1.08124 q -1.05739,0 -1.68546,0.691675 -0.62808,0.691676 -0.74733,1.931921 h 4.61117 q -0.008,-0.779128 -0.24646,-1.36745 -0.23056,-0.596272 -0.70758,-0.922234 -0.47701,-0.333912 -1.22434,-0.333912 z m 11.44047,5.406199 q 0,0.834781 -0.42136,1.407202 -0.41342,0.564471 -1.19255,0.850681 -0.77118,0.286211 -1.84447,0.286211 -0.91428,0 -1.5821,-0.143106 -0.66783,-0.143105 -1.1687,-0.405465 V 85.40125 q 0.53267,0.262359 1.27205,0.477017 0.73938,0.214658 1.51055,0.214658 1.12895,0 1.63777,-0.365713 0.50881,-0.365714 0.50881,-0.993787 0,-0.357763 -0.2067,-0.628073 -0.19876,-0.27826 -0.67578,-0.53267 -0.47702,-0.262359 -1.31975,-0.572421 -0.83478,-0.318012 -1.44695,-0.628073 -0.60422,-0.318012 -0.93814,-0.771178 -0.32596,-0.453167 -0.32596,-1.176644 0,-1.10509 0.89044,-1.693412 0.89838,-0.596272 2.35328,-0.596272 0.78708,0 1.47081,0.159006 0.69167,0.151055 1.28794,0.413415 l -0.44521,1.057389 q -0.54062,-0.230559 -1.15279,-0.389564 -0.61218,-0.159006 -1.2482,-0.159006 -0.91428,0 -1.4072,0.302111 -0.48497,0.302111 -0.48497,0.82683 0,0.405465 0.22261,0.667825 0.23056,0.26236 0.73142,0.492918 0.50087,0.230559 1.31975,0.54062 0.81888,0.302111 1.41516,0.628073 0.59627,0.318012 0.91428,0.779129 0.32596,0.453167 0.32596,1.168693 z m 3.44247,-6.328433 v 8.713521 h -1.31975 v -8.713521 z m -0.64398,-3.25962 q 0.32597,0 0.55652,0.214658 0.23851,0.206707 0.23851,0.651924 0,0.437266 -0.23851,0.651924 -0.23055,0.214658 -0.55652,0.214658 -0.34186,0 -0.57242,-0.214658 -0.22261,-0.214658 -0.22261,-0.651924 0,-0.445217 0.22261,-0.651924 0.23056,-0.214658 0.57242,-0.214658 z m 5.86732,15.884685 q -1.71726,0 -2.64744,-0.643974 -0.93019,-0.636023 -0.93019,-1.788816 0,-0.81888 0.51677,-1.399251 0.52472,-0.580372 1.44696,-0.771179 -0.34187,-0.159006 -0.58833,-0.477017 -0.23851,-0.318012 -0.23851,-0.731427 0,-0.477018 0.26236,-0.834781 0.27031,-0.365713 0.81888,-0.699626 -0.68372,-0.27826 -1.11304,-0.938134 -0.42136,-0.667825 -0.42136,-1.550307 0,-0.938135 0.38956,-1.598009 0.38957,-0.667825 1.12894,-1.017638 0.73938,-0.349813 1.78882,-0.349813 0.23056,0 0.46112,0.02385 0.23851,0.0159 0.45316,0.05565 0.21466,0.0318 0.37367,0.0795 h 2.98931 v 0.850682 l -1.60596,0.198757 q 0.23851,0.310061 0.39751,0.747327 0.15901,0.437266 0.15901,0.969936 0,1.303848 -0.88248,2.075027 -0.88249,0.763228 -2.42484,0.763228 -0.36572,0 -0.74733,-0.0636 -0.38957,0.214658 -0.59627,0.477018 -0.19876,0.26236 -0.19876,0.604222 0,0.25441 0.15106,0.405465 0.159,0.151056 0.45316,0.222608 0.29416,0.0636 0.70758,0.0636 h 1.5344 q 1.42311,0 2.17839,0.596272 0.76322,0.596272 0.76322,1.741114 0,1.446953 -1.17664,2.218131 -1.17664,0.771179 -3.40273,0.771179 z m 0.0398,-1.033538 q 1.08124,0 1.78881,-0.222608 0.71553,-0.214658 1.06534,-0.628074 0.35776,-0.405464 0.35776,-0.969935 0,-0.52472 -0.2385,-0.79503 -0.23851,-0.262359 -0.69963,-0.349812 -0.46112,-0.0954 -1.12894,-0.0954 h -1.51056 q -0.58832,0 -1.02559,0.182857 -0.43726,0.182857 -0.67577,0.54062 -0.23056,0.357763 -0.23056,0.890432 0,0.707577 0.59627,1.07329 0.59628,0.373664 1.70137,0.373664 z m 0.34186,-6.964457 q 0.94608,0 1.4231,-0.477017 0.47702,-0.477018 0.47702,-1.391302 0,-0.977886 -0.48497,-1.462853 -0.48497,-0.492919 -1.43105,-0.492919 -0.90634,0 -1.39925,0.508819 -0.48497,0.500869 -0.48497,1.470804 0,0.890433 0.49292,1.367451 0.49291,0.477017 1.4072,0.477017 z m 10.15253,-4.786076 q 1.5503,0 2.34533,0.763228 0.79503,0.755278 0.79503,2.43279 v 5.676509 h -1.30385 v -5.589056 q 0,-1.08919 -0.50087,-1.62981 -0.49291,-0.54062 -1.5185,-0.54062 -1.44695,0 -2.03528,0.81888 -0.58832,0.81888 -0.58832,2.377138 v 4.563468 h -1.31975 v -8.713521 h 1.06534 l 0.19876,1.256146 h 0.0716 q 0.27826,-0.461117 0.70758,-0.771178 0.42931,-0.318012 0.96198,-0.477018 0.53267,-0.166956 1.121,-0.166956 z"
         id="text3"
         style="font-size:16.2822px;font-family:'Open Sans';-inkscape-font-specification:'Open Sans';fill:#ffffff;stroke-width:1.21056"
         aria-label="Web-Applications &amp; Design" /><path
         d="M 479.30087,44.538776 V 8.5387764 h 26.71875 q 5.27344,0 8.67188,0.6328125 3.39844,0.6328125 5.29687,2.4609371 1.92188,1.804688 2.67188,5.273438 0.77344,3.46875 0.77344,9.164062 v 0.9375 q 0,5.507813 -0.77344,8.976563 -0.75,3.445312 -2.67188,5.320312 -1.89843,1.851563 -5.29687,2.554688 -3.39844,0.679687 -8.67188,0.679687 z m 4.5,-3.890625 h 22.21875 q 4.19532,0 6.75,-0.398437 2.55469,-0.398438 3.89063,-1.734375 1.33594,-1.335938 1.80469,-4.078125 0.46875,-2.742188 0.46875,-7.429688 v -0.9375 q 0,-3.890625 -0.28125,-6.421875 -0.28125,-2.53125 -1.05469,-3.984375 -0.75,-1.476562 -2.20313,-2.15625 -1.42968,-0.703125 -3.72656,-0.890625 -2.29687,-0.1875 -5.64844,-0.1875 h -22.21875 z m 47.13282,3.890625 V 8.5387764 h 35.34375 v 3.7499996 h -30.84375 v 12 h 29.55468 v 3.75 h -29.55468 v 12.75 h 31.5 v 3.75 z m 42.09375,0 V 8.5387764 h 6.70312 L 601.504,37.905964 622.94931,8.5387764 h 6.70313 V 44.538776 h -4.5 V 12.616901 l -21.49219,29.554688 h -4.07813 L 577.52744,12.616901 v 31.921875 z m 81.63281,0.75 q -5.27344,0 -8.67188,-0.726562 -3.39843,-0.703125 -5.32031,-2.625 -1.89844,-1.921875 -2.67187,-5.53125 -0.75,-3.609375 -0.75,-9.398438 v -0.9375 q 0,-4.78125 0.46875,-8.015625 0.46875,-3.257812 1.61718,-5.296875 1.14844,-2.039062 3.11719,-3.1171871 1.99219,-1.078125 4.99219,-1.453125 3,-0.3984375 7.21875,-0.3984375 h 9.44531 q 4.21875,0 7.21875,0.3984375 3,0.375 4.96875,1.453125 1.99219,1.0781251 3.14063,3.1171871 1.14843,2.039063 1.61718,5.296875 0.46875,3.234375 0.46875,8.015625 v 0.9375 q 0,5.789063 -0.77343,9.398438 -0.75,3.609375 -2.67188,5.53125 -1.89844,1.921875 -5.29687,2.625 -3.39844,0.726562 -8.67188,0.726562 z m 0,-3.890625 h 9.44531 q 3.35156,0 5.64844,-0.234375 2.29687,-0.234375 3.72656,-1.007812 1.45313,-0.773438 2.20313,-2.34375 0.77343,-1.570313 1.05468,-4.195313 0.28125,-2.625 0.28125,-6.609375 v -0.9375 q 0,-4.125 -0.28125,-6.796875 -0.28125,-2.671875 -1.05468,-4.21875 -0.75,-1.546875 -2.20313,-2.25 -1.42969,-0.726562 -3.72656,-0.914062 -2.29688,-0.210938 -5.64844,-0.210938 h -9.44531 q -3.35156,0 -5.64844,0.210938 -2.29687,0.1875 -3.75,0.914062 -1.42969,0.703125 -2.20312,2.25 -0.75,1.546875 -1.03125,4.21875 -0.28125,2.671875 -0.28125,6.796875 v 0.9375 q 0,3.984375 0.28125,6.609375 0.28125,2.625 1.03125,4.195313 0.77343,1.570312 2.20312,2.34375 1.45313,0.773437 3.75,1.007812 2.29688,0.234375 5.64844,0.234375 z"
         id="text4"
         style="font-size:48px;font-family:Michroma;-inkscape-font-specification:'Michroma, Normal';fill:#ffffff"
         aria-label="DEMO" /></g></g></svg>
