<?xml version="1.0" encoding="UTF-8" standalone="no"?>
<svg
  width="96.480286mm"
  height="19.372486mm"
  viewBox="0 0 96.480286 19.372486"
  fill="red"
  xmlns="http://www.w3.org/2000/svg">
  <g transform="translate(-2.5563048,-1.6766231)">
    <path
      d="M 2.5563046,11.524109 V 1.9991089 h 1.0520615 1.0520615 l 0.094466,8.5548611 0.094466,8.554861 7.4965274,0.09521 7.496528,0.09521 v 0.874928 0.874929 H 11.19936 2.5563046 Z M 26.405608,20.695481 C 23.41073,19.762017 22.523775,17.259713 22.71527,10.284192 c 0.209009,-7.6134911 1.041943,-8.3276014 9.990522,-8.5653118 8.538236,-0.2268101 10.89038,0.4016649 12.356662,3.3016059 0.600764,1.1881631 0.702366,2.1004706 0.704653,6.3272339 0.0023,4.319492 -0.09288,5.1459 -0.759259,6.589536 -1.265331,2.741211 -1.892956,2.92352 -10.348765,3.006043 -3.977569,0.03882 -7.691633,-0.0727 -8.253475,-0.247818 z m 14.803891,-1.926732 c 1.830627,-0.764884 2.269427,-2.147854 2.267062,-7.145115 -0.0037,-7.8867968 -0.178731,-8.0370252 -9.362159,-8.0370252 -8.997542,0 -9.146967,0.1238232 -9.152913,7.5847222 -0.0044,5.472947 0.378289,6.870155 2.085044,7.613326 1.599175,0.696327 12.487619,0.684097 14.162966,-0.01591 z m 11.654443,1.926523 c -2.994711,-0.932799 -3.881834,-3.435525 -3.690338,-10.41108 0.145945,-5.3162759 0.629197,-6.583456 2.9578,-7.7559165 1.270421,-0.6396618 2.093175,-0.7047332 8.809625,-0.6967502 6.178033,0.00734 7.630138,0.1077595 8.743946,0.6046648 1.414586,0.6310922 2.368554,2.2355663 2.368554,3.9836617 0,0.8205055 -0.119109,0.9041424 -1.146528,0.8050807 C 69.907735,7.1285853 69.746628,6.9718698 69.652683,6.0048006 69.593398,5.3945284 69.219218,4.6007784 68.821171,4.2409118 68.167959,3.6503543 67.420775,3.5866088 61.151837,3.5866088 c -9.702383,0 -9.736957,0.027569 -9.733251,7.7611112 0.0027,5.623281 0.387558,6.868492 2.332421,7.546475 0.654685,0.228224 3.677415,0.391025 7.260183,0.391025 8.217516,0 8.925672,-0.379676 8.925672,-4.785466 V 12.582442 H 65.350751 60.76464 v -0.881944 -0.881945 h 5.873052 5.873052 l -0.204695,3.159486 c -0.119258,1.840769 -0.455395,3.6878 -0.805344,4.425263 -1.074939,2.265266 -1.859539,2.460498 -10.206899,2.539788 -4.074583,0.0387 -7.868022,-0.07282 -8.429864,-0.247818 z m 26.811112,2.09e-4 c -2.994878,-0.933464 -3.881833,-3.435768 -3.690338,-10.411289 0.209009,-7.6134911 1.041943,-8.3276014 9.990522,-8.5653118 8.538236,-0.2268101 10.89038,0.4016649 12.356662,3.3016059 0.600764,1.1881631 0.702366,2.1004706 0.704653,6.3272339 0.0023,4.319492 -0.09288,5.1459 -0.759259,6.589536 -1.265331,2.741211 -1.892956,2.92352 -10.348765,3.006043 -3.977569,0.03882 -7.691633,-0.0727 -8.253475,-0.247818 z m 14.803891,-1.926732 c 1.830627,-0.764884 2.269427,-2.147854 2.267062,-7.145115 -0.0037,-7.8867968 -0.178731,-8.0370252 -9.362159,-8.0370252 -8.997542,0 -9.146967,0.1238232 -9.152913,7.5847222 -0.0044,5.472947 0.378289,6.870155 2.085044,7.613326 1.599175,0.696327 12.487619,0.684097 14.162966,-0.01591 z"
      id="path1"
    />
  </g>
</svg>
