<?xml version="1.0" encoding="UTF-8" standalone="no"?>

<svg
  width="273.8623"
  height="124.01007"
  viewBox="0 0 273.8623 124.01007"
  xmlns="http://www.w3.org/2000/svg">

  <defs id="defs1"/>
  <g
    id="layer1"
    transform="translate(-478.11011,-6.896986)">
    <g
      style="fill:#ffffff"
      id="g1"
      transform="matrix(11.712812,0,0,11.189205,476.85418,5.8396898)">
      <path
        d="m 4.9751754,7.1866147 c -0.18627,-0.0169 -0.81308,-0.10918 -1.39292,-0.20502 -1.811825,-0.29945 -2.459413,-0.65386 -2.459413,-1.346 0,-0.22144 0.06534,-0.44504 0.175099,-0.59918 0.261033,-0.36658 0.5701,-0.33049 1.139171,0.13302 0.558032,0.45452 1.495403,1.09253 2.438803,1.65993 0.38056,0.22889 0.63478,0.40983 0.56493,0.40209 -0.0699,-0.008 -0.2794,-0.0279 -0.46567,-0.0448 z m 13.5946336,-0.26506 c 0.80147,-0.47252 2.0296,-1.30808 2.57199,-1.74986 0.68926,-0.56141 1.11483,-0.49358 1.31657,0.20982 0.0988,0.34465 -0.0637,0.77551 -0.36763,0.97467 -0.51547,0.33775 -1.87321,0.6546 -3.61123,0.84273 l -0.46567,0.0504 z M 7.5935954,5.1303447 c -2.15418,-0.94012 -3.45648,-1.29394 -5.459454,-1.48327 -1.98197704,-0.18735 -2.33760704,-0.35506 -1.80316904,-0.85036 0.227213,-0.21058 0.546045,-0.32469 1.19003904,-0.42595 0.491143,-0.0772 0.77381,0.009 0.835372,0.25401 0.06445,0.25681 0.353536,0.52867 0.63688,0.59894 0.191382,0.0475 0.277942,-0.0132 0.677332,-0.47461 1.06368,-1.22887 2.11794,-1.92988002 3.41228,-2.26890002 1.2953899,-0.33929 1.9325399,-0.3888 4.9619596,-0.38557 2.702084,0.003 2.986234,0.0173 3.791274,0.1926 1.70798,0.37187 2.38746,0.75638002 3.7162,2.10296002 0.73974,0.74967 0.90511,0.87845 1.06558,0.82979 0.26645,-0.0808 0.5474,-0.35609 0.60741,-0.59521 0.0616,-0.24528 0.34423,-0.33123 0.83538,-0.25401 0.64399,0.10126 0.96282,0.21537 1.19003,0.42595 0.53444,0.4953 0.17881,0.66301 -1.80316,0.85036 -0.852,0.0805 -1.81122,0.22758 -2.28235,0.34988 -0.80711,0.20952 -2.73754,0.91063 -3.67019,1.33297 -0.26776,0.12125 -0.48683,0.20741 -0.48683,0.19146 0,-0.0548 1.04212,-0.75995 1.4645,-0.99093 l 0.42276,-0.23119 -0.66846,-0.0701 c -0.86432,-0.0907 -8.0015037,-0.0914 -8.8628736,-8.8e-4 l -0.65907,0.0693 0.7014,0.42073 c 0.6175099,0.3704 1.2862299,0.84447 1.1670699,0.82736 -0.0233,-0.003 -0.46424,-0.19021 -0.9799099,-0.41525 z m 11.0749536,-1.59386 c 0.45322,-0.0848 0.84953,-0.17964 0.88067,-0.21079 0.0865,-0.0865 -0.48513,-0.89482 -0.98336,-1.39037 -0.73551,-0.73154 -1.38922,-1.01996002 -2.65427,-1.17105002 l -0.49358,-0.059 0.21842,0.21842 c 0.12013,0.12013002 0.21841,0.28060002 0.21841,0.35659002 0,0.076 -0.22161,0.37301 -0.49247,0.66002 -0.712344,0.75482 -0.862194,0.97746 -0.862194,1.28095 0,0.2841 0.15967,0.41931 0.592664,0.50187 0.44034,0.0839 2.7828,-0.0383 3.57571,-0.18668 z m -5.443894,-0.12626 c 0.14051,-0.42575 0.48137,-0.77677 1.31785,-1.35713 0.660654,-0.45836 0.762004,-0.5611 0.762004,-0.77241 0,-0.13405 -0.0488,-0.26 -0.10848,-0.27988 -0.0597,-0.0199 -0.0997,-0.004 -0.0891,0.0353 0.0897,0.33009 -0.420524,0.73342 -1.318854,1.04249 -0.75867,0.26102 -1.39127,0.77981 -1.73249,1.42078 -0.10062,0.18902 -0.0968,0.1905 0.48767,0.1905 h 0.58908 z"
        id="path1"/>
    </g>
    <text
      style="font-style:normal;font-variant:normal;font-weight:normal;font-stretch:normal;font-size:29.5359px;font-family:Michroma,serif;-inkscape-font-specification:'Michroma, Normal';font-variant-ligatures:normal;font-variant-caps:normal;font-variant-numeric:normal;font-variant-east-asian:normal;fill:#ffffff;fill-opacity:1;stroke-width:1.10759"
      x="476.32806"
      y="112.122"
      id="text1">
      <tspan
        id="tspan1"
        x="476.32806"
        y="112.122"
        style="fill:#ffffff;stroke-width:1.10759">Karsten Kohts
      </tspan>
      <tspan
        id="tspan2"
        x="476.32806"
        y="149.04187"
        style="fill:#ffffff;stroke-width:1.10759"></tspan>
    </text>
    <text
      style="font-style:normal;font-variant:normal;font-weight:normal;font-stretch:normal;font-size:18.7125px;font-family:Michroma;-inkscape-font-specification:'Michroma, Normal';font-variant-ligatures:normal;font-variant-caps:normal;font-variant-numeric:normal;font-variant-east-asian:normal;fill:#ffffff;fill-opacity:1;stroke-width:1.07957"
      x="477.54236"
      y="130.70604"
      id="text3">
      <tspan
        id="tspan3"
        x="477.54236"
        y="130.70604"
        style="fill:#ffffff;stroke-width:1.07957">KFZ-Meisterwerkstatt
      </tspan>
    </text>
  </g>
</svg>
