<?xml version="1.0" encoding="UTF-8" standalone="no"?>
<!-- Created with Inkscape (http://www.inkscape.org/) -->

<svg
  width="273.8623"
  height="124.0101"
  viewBox="0 0 273.8623 124.0101"
  version="1.1"
  id="svg1"
  xml:space="preserve"
  xmlns="http://www.w3.org/2000/svg"
><defs
     id="defs1" />
  <g
    id="layer1"
    transform="translate(-478.11011,-6.896986)"><g
       style="fill:#ffffff"
       id="g1"
       transform="matrix(11.712812,0,0,11.189205,476.85418,5.8396898)"><path
         d="m 4.9751754,7.1866147 c -0.18627,-0.0169 -0.81308,-0.10918 -1.39292,-0.20502 -1.811825,-0.29945 -2.459413,-0.65386 -2.459413,-1.346 0,-0.22144 0.06534,-0.44504 0.175099,-0.59918 0.261033,-0.36658 0.5701,-0.33049 1.139171,0.13302 0.558032,0.45452 1.495403,1.09253 2.438803,1.65993 0.38056,0.22889 0.63478,0.40983 0.56493,0.40209 -0.0699,-0.008 -0.2794,-0.0279 -0.46567,-0.0448 z m 13.5946336,-0.26506 c 0.80147,-0.47252 2.0296,-1.30808 2.57199,-1.74986 0.68926,-0.56141 1.11483,-0.49358 1.31657,0.20982 0.0988,0.34465 -0.0637,0.77551 -0.36763,0.97467 -0.51547,0.33775 -1.87321,0.6546 -3.61123,0.84273 l -0.46567,0.0504 z M 7.5935954,5.1303447 c -2.15418,-0.94012 -3.45648,-1.29394 -5.459454,-1.48327 -1.98197704,-0.18735 -2.33760704,-0.35506 -1.80316904,-0.85036 0.227213,-0.21058 0.546045,-0.32469 1.19003904,-0.42595 0.491143,-0.0772 0.77381,0.009 0.835372,0.25401 0.06445,0.25681 0.353536,0.52867 0.63688,0.59894 0.191382,0.0475 0.277942,-0.0132 0.677332,-0.47461 1.06368,-1.22887 2.11794,-1.92988002 3.41228,-2.26890002 1.2953899,-0.33929 1.9325399,-0.3888 4.9619596,-0.38557 2.702084,0.003 2.986234,0.0173 3.791274,0.1926 1.70798,0.37187 2.38746,0.75638002 3.7162,2.10296002 0.73974,0.74967 0.90511,0.87845 1.06558,0.82979 0.26645,-0.0808 0.5474,-0.35609 0.60741,-0.59521 0.0616,-0.24528 0.34423,-0.33123 0.83538,-0.25401 0.64399,0.10126 0.96282,0.21537 1.19003,0.42595 0.53444,0.4953 0.17881,0.66301 -1.80316,0.85036 -0.852,0.0805 -1.81122,0.22758 -2.28235,0.34988 -0.80711,0.20952 -2.73754,0.91063 -3.67019,1.33297 -0.26776,0.12125 -0.48683,0.20741 -0.48683,0.19146 0,-0.0548 1.04212,-0.75995 1.4645,-0.99093 l 0.42276,-0.23119 -0.66846,-0.0701 c -0.86432,-0.0907 -8.0015037,-0.0914 -8.8628736,-8.8e-4 l -0.65907,0.0693 0.7014,0.42073 c 0.6175099,0.3704 1.2862299,0.84447 1.1670699,0.82736 -0.0233,-0.003 -0.46424,-0.19021 -0.9799099,-0.41525 z m 11.0749536,-1.59386 c 0.45322,-0.0848 0.84953,-0.17964 0.88067,-0.21079 0.0865,-0.0865 -0.48513,-0.89482 -0.98336,-1.39037 -0.73551,-0.73154 -1.38922,-1.01996002 -2.65427,-1.17105002 l -0.49358,-0.059 0.21842,0.21842 c 0.12013,0.12013002 0.21841,0.28060002 0.21841,0.35659002 0,0.076 -0.22161,0.37301 -0.49247,0.66002 -0.712344,0.75482 -0.862194,0.97746 -0.862194,1.28095 0,0.2841 0.15967,0.41931 0.592664,0.50187 0.44034,0.0839 2.7828,-0.0383 3.57571,-0.18668 z m -5.443894,-0.12626 c 0.14051,-0.42575 0.48137,-0.77677 1.31785,-1.35713 0.660654,-0.45836 0.762004,-0.5611 0.762004,-0.77241 0,-0.13405 -0.0488,-0.26 -0.10848,-0.27988 -0.0597,-0.0199 -0.0997,-0.004 -0.0891,0.0353 0.0897,0.33009 -0.420524,0.73342 -1.318854,1.04249 -0.75867,0.26102 -1.39127,0.77981 -1.73249,1.42078 -0.10062,0.18902 -0.0968,0.1905 0.48767,0.1905 h 0.58908 z"
         id="path1" /></g>
    <path
      d="M 479.09705,112.122 V 89.970077 h 2.769 v 9.691467 h 3.67756 l 14.32087,-9.691467 h 4.15349 l -15.69095,10.845213 16.15245,11.30671 h -4.15349 l -14.76795,-10.15296 h -3.69198 V 112.122 Z m 36.91988,0.31728 q -2.98532,0 -4.93226,-0.31728 -1.93253,-0.30286 -2.88437,-1.35565 -0.93742,-1.05279 -0.93742,-3.27375 0,-2.26423 0.87973,-3.31702 0.89416,-1.06722 2.81226,-1.3845 1.93252,-0.31728 5.06206,-0.31728 2.53824,0 4.25444,0.11537 1.7162,0.11538 3.07185,0.40382 -0.0288,-1.91811 -0.2596,-3.014166 -0.23074,-1.110481 -0.8653,-1.644088 -0.63457,-0.533608 -1.86042,-0.677826 -1.21143,-0.15864 -3.23049,-0.15864 -2.30749,0 -3.61988,0.100953 -1.29796,0.100952 -1.88926,0.360545 -0.59129,0.259593 -0.74993,0.749935 -0.14422,0.490342 -0.14422,1.269121 h -2.76899 q 0,-1.557557 0.41823,-2.509398 0.43266,-0.95184 1.45661,-1.442182 1.02395,-0.490343 2.79783,-0.663404 1.78831,-0.173062 4.49961,-0.173062 2.91321,0 4.68709,0.374967 1.78831,0.374968 2.71131,1.355652 0.93742,0.966262 1.2547,2.711303 0.3317,1.74504 0.3317,4.49961 v 7.98969 h -2.76899 v -1.13932 q -0.49034,0.51918 -1.35565,0.83646 -0.86531,0.31728 -2.3075,0.4615 -1.42776,0.15864 -3.66314,0.15864 z m 0,-2.2498 q 2.46613,0 3.93716,-0.0577 1.47102,-0.0577 2.19212,-0.31728 0.73551,-0.25959 0.96626,-0.83647 0.23075,-0.57687 0.23075,-1.61524 v -2.55266 l -7.32629,-0.0865 q -1.94695,-0.0288 -3.14396,0.0577 -1.18259,0.0721 -1.80273,0.34613 -0.62013,0.25959 -0.83646,0.83646 -0.20191,0.56245 -0.20191,1.52872 0,0.93741 0.20191,1.48544 0.21633,0.54803 0.83646,0.80763 0.62014,0.25959 1.80273,0.3317 1.19701,0.0721 3.14396,0.0721 z m 14.01801,1.93252 V 95.508058 h 2.76899 v 2.29307 q 0.4615,-0.735513 0.923,-1.225855 0.47592,-0.490342 1.22586,-0.778779 0.76435,-0.288436 2.06232,-0.403811 1.29796,-0.129796 3.41797,-0.129796 v 2.321914 q -2.85552,0 -4.4275,0.201905 -1.55756,0.201906 -2.23538,0.692248 -0.67783,0.47592 -0.82205,1.326808 -0.14422,0.850888 -0.14422,2.163278 V 112.122 Z m 23.3201,0.31728 q -3.02858,0 -4.87458,-0.2019 -1.83157,-0.20191 -2.78341,-0.74994 -0.93742,-0.54803 -1.26912,-1.55756 -0.31728,-1.00952 -0.31728,-2.62477 h 2.65362 q 0,0.90858 0.12979,1.47103 0.1298,0.54803 0.73552,0.85089 0.60571,0.28843 1.96136,0.40381 1.37008,0.10095 3.83621,0.10095 2.61035,0 4.05253,-0.10095 1.45661,-0.11538 2.09117,-0.40381 0.63456,-0.30286 0.76435,-0.86531 0.14422,-0.56246 0.14422,-1.48545 0,-1.1249 -0.2019,-1.68736 -0.20191,-0.56245 -0.95184,-0.74993 -0.74994,-0.20191 -2.39403,-0.21633 l -6.60519,-0.0721 q -2.55267,-0.0288 -3.8939,-0.43265 -1.34123,-0.40381 -1.83157,-1.41334 -0.49034,-1.02395 -0.49034,-2.898788 0,-1.745041 0.53361,-2.696881 0.54803,-0.951841 1.70177,-1.355652 1.15375,-0.403811 2.99974,-0.47592 1.846,-0.08653 4.45635,-0.08653 3.07185,0 4.87457,0.187483 1.81715,0.187484 2.71131,0.70667 0.90857,0.519186 1.18259,1.514292 0.28843,0.980684 0.28843,2.567086 h -2.65361 q 0,-0.93742 -0.1298,-1.471028 -0.1298,-0.548029 -0.70667,-0.7932 -0.56245,-0.259593 -1.84599,-0.331702 -1.26912,-0.07211 -3.57661,-0.07211 -2.62478,0 -4.08138,0.05769 -1.45661,0.05769 -2.10559,0.274015 -0.64898,0.216327 -0.7932,0.692248 -0.14422,0.461498 -0.14422,1.283542 0,0.836465 0.0865,1.326805 0.10096,0.47592 0.50477,0.72109 0.40381,0.24517 1.31238,0.3317 0.923,0.0721 2.56709,0.0865 l 5.69662,0.0577 q 2.56709,0.0288 3.89389,0.43266 1.34123,0.38939 1.81715,1.4566 0.49035,1.05279 0.49035,3.05743 0,1.80273 -0.53361,2.8411 -0.51919,1.03837 -1.67293,1.54313 -1.15375,0.49035 -3.04301,0.63456 -1.87484,0.14422 -4.58614,0.14422 z m 21.21451,-0.31728 q -2.53824,0 -4.06696,-0.50476 -1.52871,-0.51919 -2.22096,-1.81715 -0.67782,-1.31239 -0.67782,-3.67757 V 90.965183 h 2.76899 v 4.542875 h 10.22507 v 2.278648 H 570.3728 v 8.335814 q 0,1.61525 0.28843,2.40845 0.30286,0.7932 1.19701,1.03837 0.90858,0.24517 2.71131,0.24517 1.60082,0 2.5094,-0.10095 0.92299,-0.10096 1.35565,-0.53361 0.43265,-0.44708 0.54803,-1.45661 0.11537,-1.00952 0.11537,-2.8411 h 2.45171 q 0,2.39403 -0.30286,3.83621 -0.28843,1.44218 -1.05279,2.1777 -0.74994,0.73551 -2.12001,0.98068 -1.35565,0.24517 -3.5045,0.24517 z m 29.11766,-4.93226 q 0,1.86041 -0.56245,2.92763 -0.54803,1.06721 -1.68735,1.55756 -1.13932,0.49034 -2.91321,0.62013 -1.75946,0.14422 -4.19675,0.14422 -2.78341,0 -4.73036,-0.28843 -1.93252,-0.27402 -3.12954,-1.13933 -1.18259,-0.87973 -1.73061,-2.62477 -0.53361,-1.74504 -0.53361,-4.65825 0,-2.82668 0.51918,-4.528455 0.53361,-1.701775 1.7162,-2.567085 1.18259,-0.865309 3.10069,-1.153746 1.93253,-0.288436 4.71594,-0.288436 3.18722,0 5.27839,0.447076 2.09116,0.447077 3.11511,1.701776 1.03837,1.254699 1.03837,3.67757 v 3.56219 h -16.70047 q 0.0144,1.84599 0.25959,2.95647 0.24517,1.11048 0.98069,1.67293 0.73551,0.56245 2.19211,0.74994 1.47103,0.17306 3.90832,0.17306 2.19212,0 3.53335,-0.0865 1.35565,-0.0865 2.0479,-0.37497 0.70667,-0.30286 0.95184,-0.89415 0.24517,-0.5913 0.24517,-1.5864 z m -9.43187,-9.69147 q -2.35076,0 -3.79294,0.173062 -1.42776,0.173062 -2.1777,0.677826 -0.74993,0.490342 -1.02395,1.471026 -0.25959,0.980686 -0.27401,2.581506 h 14.04686 v -1.38449 q 0,-1.038376 -0.24517,-1.716202 -0.23075,-0.692248 -0.923,-1.081637 -0.69225,-0.403811 -2.0479,-0.562451 -1.34123,-0.15864 -3.56219,-0.15864 z M 607.32151,112.122 V 95.508058 h 2.76899 v 2.206539 q 0.62014,-0.836466 1.52872,-1.398917 0.92299,-0.562451 2.45171,-0.836466 1.54313,-0.288436 4.03811,-0.288436 3.25933,0 5.13417,0.63456 1.88926,0.63456 2.68246,2.264227 0.7932,1.629666 0.7932,4.614985 v 9.41745 h -2.78341 v -9.41745 q 0,-1.70178 -0.28844,-2.740148 -0.28844,-1.038371 -0.99511,-1.571979 -0.69224,-0.533607 -1.9181,-0.706669 -1.22585,-0.187484 -3.11511,-0.187484 -2.88437,0 -4.52846,0.47592 -1.64409,0.47592 -2.32191,1.49987 -0.67783,1.00953 -0.67783,2.63919 V 112.122 Z m 32.34816,0 V 89.970077 h 2.76899 v 9.691467 h 3.67757 l 14.32087,-9.691467 h 4.15349 l -15.69095,10.845213 16.15245,11.30671 h -4.15349 l -14.76795,-10.15296 h -3.69199 V 112.122 Z m 37.8573,0.31728 q -2.78342,0 -4.73036,-0.28843 -1.94695,-0.27402 -3.14396,-1.13933 -1.19701,-0.87973 -1.74504,-2.62477 -0.54803,-1.74504 -0.54803,-4.65825 0,-2.82668 0.54803,-4.528455 0.54803,-1.701775 1.74504,-2.567085 1.19701,-0.865309 3.14396,-1.153746 1.94694,-0.288436 4.73036,-0.288436 2.79783,0 4.73035,0.288436 1.94695,0.288437 3.14396,1.153746 1.19701,0.86531 1.74504,2.567085 0.54803,1.701775 0.54803,4.528455 0,2.91321 -0.54803,4.65825 -0.54803,1.74504 -1.74504,2.62477 -1.19701,0.86531 -3.14396,1.13933 -1.93252,0.28843 -4.73035,0.28843 z m 7.39839,-8.71078 q 0,-2.06232 -0.21633,-3.3026 -0.2019,-1.240276 -0.90857,-1.860415 -0.70667,-0.63456 -2.20654,-0.850888 -1.48545,-0.216327 -4.06695,-0.216327 -2.56709,0 -4.06696,0.216327 -1.49987,0.216328 -2.20654,0.850888 -0.70667,0.620139 -0.923,1.860415 -0.2019,1.24028 -0.2019,3.3026 0,2.13443 0.2019,3.41797 0.21633,1.28354 0.923,1.93253 0.70667,0.63456 2.20654,0.85088 1.49987,0.20191 4.06696,0.20191 2.5815,0 4.06695,-0.20191 1.49987,-0.21632 2.20654,-0.85088 0.70667,-0.64899 0.90857,-1.93253 0.21633,-1.28354 0.21633,-3.41797 z m 6.05716,8.3935 V 89.970077 h 2.76899 v 7.74452 q 0.62014,-0.836466 1.52872,-1.398917 0.92299,-0.562451 2.45171,-0.836466 1.54313,-0.288436 4.03811,-0.288436 3.25933,0 5.13417,0.63456 1.88926,0.63456 2.68246,2.264227 0.7932,1.629666 0.7932,4.614985 v 9.41745 h -2.78341 v -9.41745 q 0,-1.70178 -0.28844,-2.740148 -0.28844,-1.038371 -0.99511,-1.571979 -0.69224,-0.533607 -1.9181,-0.706669 -1.22585,-0.187484 -3.11511,-0.187484 -2.88437,0 -4.52846,0.47592 -1.64408,0.47592 -2.32191,1.49987 -0.67783,1.00953 -0.67783,2.63919 V 112.122 Z m 30.74734,0 q -2.53824,0 -4.06695,-0.50476 -1.52871,-0.51919 -2.22096,-1.81715 -0.67783,-1.31239 -0.67783,-3.67757 V 90.965183 h 2.76899 v 4.542875 h 10.22508 v 2.278648 h -10.22508 v 8.335814 q 0,1.61525 0.28844,2.40845 0.30286,0.7932 1.19701,1.03837 0.90858,0.24517 2.7113,0.24517 1.60083,0 2.5094,-0.10095 0.923,-0.10096 1.35565,-0.53361 0.43266,-0.44708 0.54803,-1.45661 0.11538,-1.00952 0.11538,-2.8411 h 2.45171 q 0,2.39403 -0.30286,3.83621 -0.28844,1.44218 -1.05279,2.1777 -0.74994,0.73551 -2.12001,0.98068 -1.35565,0.24517 -3.50451,0.24517 z m 20.40689,0.31728 q -3.02859,0 -4.87458,-0.2019 -1.83157,-0.20191 -2.78341,-0.74994 -0.93742,-0.54803 -1.26912,-1.55756 -0.31728,-1.00952 -0.31728,-2.62477 h 2.65361 q 0,0.90858 0.1298,1.47103 0.1298,0.54803 0.73551,0.85089 0.60572,0.28843 1.96137,0.40381 1.37007,0.10095 3.83621,0.10095 2.61035,0 4.05253,-0.10095 1.4566,-0.11538 2.09117,-0.40381 0.63456,-0.30286 0.76435,-0.86531 0.14422,-0.56246 0.14422,-1.48545 0,-1.1249 -0.20191,-1.68736 -0.2019,-0.56245 -0.95184,-0.74993 -0.74993,-0.20191 -2.39402,-0.21633 l -6.6052,-0.0721 q -2.55266,-0.0288 -3.89389,-0.43265 -1.34123,-0.40381 -1.83157,-1.41334 -0.49034,-1.02395 -0.49034,-2.898788 0,-1.745041 0.5336,-2.696881 0.54803,-0.951841 1.70178,-1.355652 1.15375,-0.403811 2.99974,-0.47592 1.84599,-0.08653 4.45634,-0.08653 3.07185,0 4.87458,0.187483 1.81715,0.187484 2.71131,0.70667 0.90857,0.519186 1.18258,1.514292 0.28844,0.980684 0.28844,2.567086 h -2.65361 q 0,-0.93742 -0.1298,-1.471028 -0.1298,-0.548029 -0.70667,-0.7932 -0.56245,-0.259593 -1.84599,-0.331702 -1.26912,-0.07211 -3.57662,-0.07211 -2.62477,0 -4.08137,0.05769 -1.45661,0.05769 -2.10559,0.274015 -0.64898,0.216327 -0.7932,0.692248 -0.14422,0.461498 -0.14422,1.283542 0,0.836465 0.0865,1.326805 0.10095,0.47592 0.50477,0.72109 0.40381,0.24517 1.31238,0.3317 0.923,0.0721 2.56709,0.0865 l 5.69662,0.0577 q 2.56708,0.0288 3.89389,0.43266 1.34123,0.38939 1.81715,1.4566 0.49034,1.05279 0.49034,3.05743 0,1.80273 -0.5336,2.8411 -0.51919,1.03837 -1.67294,1.54313 -1.15374,0.49035 -3.043,0.63456 -1.87484,0.14422 -4.58614,0.14422 z"
      id="text1"
      style="font-size:29.5359px;font-family:Michroma;-inkscape-font-specification:'Michroma, Normal';fill:#ffffff;stroke-width:1.10759"
      aria-label="Karsten Kohts&#10;"/>
    <path
      d="m 479.29666,130.70604 v -14.03438 h 1.75429 v 6.14004 h 2.32993 l 9.073,-6.14004 h 2.63145 l -9.94102,6.871 10.2334,7.16338 h -2.63145 l -9.35625,-6.43242 h -2.33906 v 6.43242 z m 18.42011,0 v -14.03438 h 13.23032 v 1.46192 h -11.47602 v 4.67812 h 10.95522 v 1.46192 h -10.95522 v 6.43242 z m 15.20391,0 v -1.46191 l 13.57752,-11.11055 h -12.99276 v -1.46192 h 15.49629 v 1.46192 l -13.65062,11.11055 h 13.943 v 1.46191 z m 18.69422,-4.67813 V 124.566 h 7.01719 v 1.46191 z m 9.97757,4.67813 v -14.03438 h 2.61317 l 8.48823,11.44862 8.36033,-11.44862 h 2.61317 v 14.03438 h -1.7543 V 118.2615 l -8.37859,11.52171 h -1.58984 l -8.59788,-11.52171 v 12.44454 z m 37.08693,-3.12484 q 0,1.17867 -0.35634,1.8548 -0.34721,0.67614 -1.06903,0.98679 -0.72182,0.31066 -1.84566,0.39289 -1.11471,0.0914 -2.65886,0.0914 -1.76343,0 -2.99692,-0.18274 -1.22436,-0.1736 -1.98272,-0.72182 -0.74924,-0.55735 -1.09644,-1.66292 -0.33807,-1.10558 -0.33807,-2.95124 0,-1.79085 0.32893,-2.86901 0.33807,-1.07816 1.0873,-1.62638 0.74923,-0.54822 1.96445,-0.73096 1.22435,-0.18273 2.98779,-0.18273 2.01926,0 3.34412,0.28324 1.32486,0.28325 1.97359,1.07816 0.65786,0.79492 0.65786,2.32993 v 2.25683 h -10.5806 q 0.009,1.16953 0.16446,1.87308 0.15533,0.70354 0.62131,1.05988 0.46599,0.35634 1.38882,0.47513 0.93197,0.10964 2.47612,0.10964 1.38882,0 2.23856,-0.0548 0.85887,-0.0548 1.29744,-0.23756 0.44772,-0.19188 0.60304,-0.5665 0.15533,-0.37461 0.15533,-1.00506 z m -5.97557,-6.14004 q -1.48933,0 -2.40303,0.10964 -0.90456,0.10965 -1.37968,0.42944 -0.47512,0.31066 -0.64872,0.93197 -0.16447,0.62131 -0.1736,1.63552 h 8.8994 v -0.87715 q 0,-0.65786 -0.15533,-1.0873 -0.14619,-0.43857 -0.58477,-0.68527 -0.43857,-0.25584 -1.29744,-0.35634 -0.84974,-0.10051 -2.25683,-0.10051 z m 8.24153,9.26488 v -9.94102 h 1.7543 v 9.94102 z m 0,-12.28008 v -1.7543 h 1.7543 v 1.7543 z m 10.04153,12.48109 q -1.91876,0 -3.0883,-0.12791 -1.16039,-0.12792 -1.76343,-0.47513 -0.5939,-0.3472 -0.80405,-0.98679 -0.20102,-0.63959 -0.20102,-1.66293 h 1.68121 q 0,0.57563 0.0822,0.93197 0.0822,0.34721 0.46598,0.53908 0.38376,0.18274 1.24263,0.25584 0.86801,0.064 2.43043,0.064 1.65379,0 2.56749,-0.064 0.92283,-0.0731 1.32486,-0.25584 0.40203,-0.19187 0.48426,-0.54821 0.0914,-0.35634 0.0914,-0.94111 0,-0.71268 -0.12792,-1.06902 -0.12792,-0.35635 -0.60304,-0.47513 -0.47512,-0.12791 -1.51674,-0.13705 l -4.18472,-0.0457 q -1.61725,-0.0183 -2.46698,-0.2741 -0.84974,-0.25584 -1.1604,-0.89543 -0.31066,-0.64872 -0.31066,-1.83653 0,-1.10557 0.33807,-1.70861 0.34721,-0.60304 1.07816,-0.85887 0.73096,-0.25584 1.90049,-0.30152 1.16953,-0.0548 2.82332,-0.0548 1.94618,0 3.0883,0.11878 1.15125,0.11878 1.71775,0.44771 0.57562,0.32893 0.74923,0.95938 0.18274,0.62131 0.18274,1.62638 h -1.6812 q 0,-0.59391 -0.0822,-0.93197 -0.0822,-0.34721 -0.44771,-0.50254 -0.35634,-0.16446 -1.16953,-0.21015 -0.80405,-0.0457 -2.26597,-0.0457 -1.66292,0 -2.58576,0.0366 -0.92283,0.0365 -1.33399,0.1736 -0.41117,0.13705 -0.50254,0.43857 -0.0914,0.29239 -0.0914,0.81319 0,0.52995 0.0548,0.8406 0.064,0.30152 0.31979,0.45685 0.25583,0.15533 0.83146,0.21015 0.58477,0.0457 1.62638,0.0548 l 3.6091,0.0365 q 1.62638,0.0183 2.46698,0.27411 0.84974,0.2467 1.15126,0.92283 0.31066,0.667 0.31066,1.93704 0,1.14212 -0.33807,1.79998 -0.32893,0.65786 -1.05989,0.97766 -0.73096,0.31065 -1.9279,0.40202 -1.1878,0.0914 -2.90555,0.0914 z m 13.44047,-0.20101 q -1.60811,0 -2.57663,-0.31979 -0.96851,-0.32893 -1.40709,-1.15126 -0.42944,-0.83147 -0.42944,-2.32993 v -9.60294 h 1.7543 v 2.87814 h 6.47811 v 1.44364 h -6.47811 v 5.28116 q 0,1.02334 0.18274,1.52588 0.19188,0.50253 0.75837,0.65786 0.57563,0.15533 1.71775,0.15533 1.0142,0 1.58983,-0.064 0.58476,-0.064 0.85887,-0.33807 0.27411,-0.28325 0.34721,-0.92283 0.0731,-0.63959 0.0731,-1.79999 h 1.55329 q 0,1.51674 -0.19188,2.43044 -0.18274,0.91369 -0.667,1.37968 -0.47512,0.46598 -1.34313,0.62131 -0.85888,0.15533 -2.22028,0.15533 z m 18.44753,-3.12484 q 0,1.17867 -0.35634,1.8548 -0.34721,0.67614 -1.06903,0.98679 -0.72182,0.31066 -1.84567,0.39289 -1.11471,0.0914 -2.65885,0.0914 -1.76344,0 -2.99693,-0.18274 -1.22435,-0.1736 -1.98272,-0.72182 -0.74923,-0.55735 -1.09643,-1.66292 -0.33807,-1.10558 -0.33807,-2.95124 0,-1.79085 0.32893,-2.86901 0.33807,-1.07816 1.0873,-1.62638 0.74923,-0.54822 1.96445,-0.73096 1.22435,-0.18273 2.98778,-0.18273 2.01927,0 3.34413,0.28324 1.32486,0.28325 1.97359,1.07816 0.65786,0.79492 0.65786,2.32993 v 2.25683 h -10.58061 q 0.009,1.16953 0.16447,1.87308 0.15533,0.70354 0.62131,1.05988 0.46599,0.35634 1.38882,0.47513 0.93197,0.10964 2.47612,0.10964 1.38882,0 2.23855,-0.0548 0.85888,-0.0548 1.29745,-0.23756 0.44771,-0.19188 0.60304,-0.5665 0.15533,-0.37461 0.15533,-1.00506 z m -5.97558,-6.14004 q -1.48932,0 -2.40302,0.10964 -0.90456,0.10965 -1.37968,0.42944 -0.47512,0.31066 -0.64872,0.93197 -0.16447,0.62131 -0.17361,1.63552 h 8.89941 v -0.87715 q 0,-0.65786 -0.15533,-1.0873 -0.14619,-0.43857 -0.58477,-0.68527 -0.43857,-0.25584 -1.29745,-0.35634 -0.84973,-0.10051 -2.25683,-0.10051 z m 8.42429,9.26488 v -10.52578 h 1.7543 v 1.45278 q 0.29238,-0.46599 0.58476,-0.77665 0.30152,-0.31065 0.77664,-0.49339 0.48426,-0.18274 1.30659,-0.25584 0.82233,-0.0822 2.16546,-0.0822 v 1.47105 q -1.80912,0 -2.80505,0.12792 -0.98679,0.12792 -1.41623,0.43857 -0.42943,0.30152 -0.5208,0.8406 -0.0914,0.53908 -0.0914,1.37055 v 6.43242 z m 12.33489,0 -4.03854,-10.52578 h 1.99186 l 3.20707,9.10955 h 0.0183 l 3.49945,-9.10955 h 1.7543 l 3.46291,9.10955 h 0.0183 l 3.24362,-9.10955 h 1.99186 l -4.03854,10.52578 h -2.33906 l -3.20707,-8.52479 h -0.0183 l -3.20707,8.52479 z m 28.42509,-3.12484 q 0,1.17867 -0.35634,1.8548 -0.3472,0.67614 -1.06902,0.98679 -0.72182,0.31066 -1.84567,0.39289 -1.11471,0.0914 -2.65886,0.0914 -1.76343,0 -2.99692,-0.18274 -1.22435,-0.1736 -1.98272,-0.72182 -0.74923,-0.55735 -1.09644,-1.66292 -0.33807,-1.10558 -0.33807,-2.95124 0,-1.79085 0.32894,-2.86901 0.33806,-1.07816 1.08729,-1.62638 0.74923,-0.54822 1.96445,-0.73096 1.22435,-0.18273 2.98779,-0.18273 2.01927,0 3.34413,0.28324 1.32486,0.28325 1.97358,1.07816 0.65786,0.79492 0.65786,2.32993 v 2.25683 h -10.5806 q 0.009,1.16953 0.16446,1.87308 0.15533,0.70354 0.62132,1.05988 0.46598,0.35634 1.38882,0.47513 0.93197,0.10964 2.47611,0.10964 1.38882,0 2.23856,-0.0548 0.85887,-0.0548 1.29745,-0.23756 0.44771,-0.19188 0.60304,-0.5665 0.15532,-0.37461 0.15532,-1.00506 z m -5.97557,-6.14004 q -1.48933,0 -2.40302,0.10964 -0.90456,0.10965 -1.37968,0.42944 -0.47513,0.31066 -0.64873,0.93197 -0.16446,0.62131 -0.1736,1.63552 h 8.8994 v -0.87715 q 0,-0.65786 -0.15533,-1.0873 -0.14619,-0.43857 -0.58476,-0.68527 -0.43858,-0.25584 -1.29745,-0.35634 -0.84974,-0.10051 -2.25683,-0.10051 z m 8.42428,9.26488 v -10.52578 h 1.7543 v 1.45278 q 0.29238,-0.46599 0.58477,-0.77665 0.30152,-0.31065 0.77664,-0.49339 0.48426,-0.18274 1.30658,-0.25584 0.82233,-0.0822 2.16546,-0.0822 v 1.47105 q -1.80911,0 -2.80504,0.12792 -0.9868,0.12792 -1.41623,0.43857 -0.42944,0.30152 -0.52081,0.8406 -0.0914,0.53908 -0.0914,1.37055 v 6.43242 z m 8.88112,0 v -14.03438 h 1.7543 v 8.10449 l 6.98977,-4.59589 h 2.65886 l -7.42835,4.9431 7.72073,5.58268 h -2.61317 l -7.32784,-5.39995 v 5.39995 z m 18.81302,0.20101 q -1.91876,0 -3.0883,-0.12791 -1.16039,-0.12792 -1.76343,-0.47513 -0.5939,-0.3472 -0.80405,-0.98679 -0.20102,-0.63959 -0.20102,-1.66293 h 1.68121 q 0,0.57563 0.0822,0.93197 0.0822,0.34721 0.46598,0.53908 0.38376,0.18274 1.24263,0.25584 0.86801,0.064 2.43043,0.064 1.65379,0 2.56749,-0.064 0.92283,-0.0731 1.32486,-0.25584 0.40203,-0.19187 0.48426,-0.54821 0.0914,-0.35634 0.0914,-0.94111 0,-0.71268 -0.12792,-1.06902 -0.12792,-0.35635 -0.60304,-0.47513 -0.47512,-0.12791 -1.51674,-0.13705 l -4.18472,-0.0457 q -1.61725,-0.0183 -2.46698,-0.2741 -0.84974,-0.25584 -1.1604,-0.89543 -0.31066,-0.64872 -0.31066,-1.83653 0,-1.10557 0.33807,-1.70861 0.34721,-0.60304 1.07816,-0.85887 0.73096,-0.25584 1.90049,-0.30152 1.16953,-0.0548 2.82332,-0.0548 1.94618,0 3.0883,0.11878 1.15125,0.11878 1.71775,0.44771 0.57562,0.32893 0.74923,0.95938 0.18274,0.62131 0.18274,1.62638 h -1.6812 q 0,-0.59391 -0.0822,-0.93197 -0.0822,-0.34721 -0.44771,-0.50254 -0.35634,-0.16446 -1.16953,-0.21015 -0.80405,-0.0457 -2.26597,-0.0457 -1.66292,0 -2.58576,0.0366 -0.92283,0.0365 -1.33399,0.1736 -0.41117,0.13705 -0.50254,0.43857 -0.0914,0.29239 -0.0914,0.81319 0,0.52995 0.0548,0.8406 0.0639,0.30152 0.31979,0.45685 0.25583,0.15533 0.83146,0.21015 0.58477,0.0457 1.62638,0.0548 l 3.6091,0.0365 q 1.62638,0.0183 2.46698,0.27411 0.84974,0.2467 1.15126,0.92283 0.31066,0.667 0.31066,1.93704 0,1.14212 -0.33807,1.79998 -0.32893,0.65786 -1.05989,0.97766 -0.73096,0.31065 -1.9279,0.40202 -1.1878,0.0914 -2.90555,0.0914 z m 13.44047,-0.20101 q -1.60811,0 -2.57663,-0.31979 -0.96851,-0.32893 -1.40709,-1.15126 -0.42944,-0.83147 -0.42944,-2.32993 v -9.60294 h 1.7543 v 2.87814 h 6.47811 v 1.44364 h -6.47811 v 5.28116 q 0,1.02334 0.18274,1.52588 0.19188,0.50253 0.75837,0.65786 0.57563,0.15533 1.71775,0.15533 1.0142,0 1.58983,-0.064 0.58476,-0.064 0.85887,-0.33807 0.27411,-0.28325 0.34721,-0.92283 0.0731,-0.63959 0.0731,-1.79999 h 1.55329 q 0,1.51674 -0.19188,2.43044 -0.18274,0.91369 -0.667,1.37968 -0.47512,0.46598 -1.34313,0.62131 -0.85888,0.15533 -2.22028,0.15533 z m 11.95114,0.20101 q -1.89135,0 -3.12484,-0.20101 -1.22436,-0.19188 -1.82739,-0.85888 -0.59391,-0.66699 -0.59391,-2.07409 0,-1.4345 0.55736,-2.1015 0.56649,-0.67613 1.7817,-0.87715 1.22436,-0.20101 3.20708,-0.20101 1.6081,0 2.6954,0.0731 1.0873,0.0731 1.94618,0.25583 -0.0183,-1.21521 -0.16447,-1.90962 -0.14619,-0.70355 -0.54822,-1.04162 -0.40202,-0.33806 -1.17867,-0.42943 -0.7675,-0.10051 -2.04668,-0.10051 -1.46191,0 -2.29337,0.064 -0.82233,0.064 -1.19694,0.22842 -0.37462,0.16447 -0.47513,0.47512 -0.0914,0.31066 -0.0914,0.80406 h -1.75429 q 0,-0.9868 0.26497,-1.58983 0.27411,-0.60304 0.92283,-0.9137 0.64873,-0.31066 1.77257,-0.4203 1.13299,-0.10964 2.85073,-0.10964 1.84567,0 2.96952,0.23756 1.13298,0.23756 1.71775,0.85887 0.5939,0.61218 0.79491,1.71775 0.21015,1.10557 0.21015,2.85073 v 5.06188 h -1.75429 v -0.72182 q -0.31066,0.32893 -0.85888,0.52994 -0.54822,0.20102 -1.46191,0.29239 -0.90456,0.1005 -2.32079,0.1005 z m 0,-1.42536 q 1.56242,0 2.49439,-0.0365 0.93197,-0.0366 1.38882,-0.20101 0.46598,-0.16447 0.61217,-0.52995 0.1462,-0.36548 0.1462,-1.02334 v -1.61724 l -4.64158,-0.0548 q -1.23349,-0.0183 -1.99186,0.0365 -0.74923,0.0457 -1.14212,0.21928 -0.39289,0.16447 -0.52994,0.52995 -0.12792,0.35634 -0.12792,0.96851 0,0.59391 0.12792,0.94111 0.13705,0.34721 0.52994,0.51167 0.39289,0.16447 1.14212,0.21015 0.75837,0.0457 1.99186,0.0457 z m 13.56839,1.22435 q -1.60811,0 -2.57662,-0.31979 -0.96852,-0.32893 -1.4071,-1.15126 -0.42943,-0.83147 -0.42943,-2.32993 v -9.60294 h 1.75429 v 2.87814 h 6.47811 v 1.44364 h -6.47811 v 5.28116 q 0,1.02334 0.18274,1.52588 0.19188,0.50253 0.75837,0.65786 0.57563,0.15533 1.71775,0.15533 1.0142,0 1.58983,-0.064 0.58477,-0.064 0.85887,-0.33807 0.27411,-0.28325 0.34721,-0.92283 0.0731,-0.63959 0.0731,-1.79999 h 1.55329 q 0,1.51674 -0.19188,2.43044 -0.18274,0.91369 -0.667,1.37968 -0.47512,0.46598 -1.34313,0.62131 -0.85887,0.15533 -2.22028,0.15533 z m 11.85063,0 q -1.60811,0 -2.57662,-0.31979 -0.96852,-0.32893 -1.4071,-1.15126 -0.42943,-0.83147 -0.42943,-2.32993 v -9.60294 h 1.75429 v 2.87814 h 6.47811 v 1.44364 h -6.47811 v 5.28116 q 0,1.02334 0.18274,1.52588 0.19188,0.50253 0.75837,0.65786 0.57563,0.15533 1.71775,0.15533 1.0142,0 1.58983,-0.064 0.58477,-0.064 0.85888,-0.33807 0.27411,-0.28325 0.3472,-0.92283 0.0731,-0.63959 0.0731,-1.79999 h 1.55328 q 0,1.51674 -0.19188,2.43044 -0.18274,0.91369 -0.66699,1.37968 -0.47513,0.46598 -1.34314,0.62131 -0.85887,0.15533 -2.22028,0.15533 z"
      id="text3"
      style="font-size:18.7125px;font-family:Michroma;-inkscape-font-specification:'Michroma, Normal';fill:#ffffff;stroke-width:1.07957"
      aria-label="KFZ-Meisterwerkstatt"/></g></svg>
